<?xml version="1.0" encoding="UTF-8"?>
<!DOCTYPE svg PUBLIC "-//W3C//DTD SVG 1.1//EN" "http://www.w3.org/Graphics/SVG/1.1/DTD/svg11.dtd">
<svg xmlns="http://www.w3.org/2000/svg" version="1.1" width="60px" height="60px" style="shape-rendering:geometricPrecision; text-rendering:geometricPrecision; image-rendering:optimizeQuality; fill-rule:evenodd; clip-rule:evenodd" xmlns:xlink="http://www.w3.org/1999/xlink">
<g><path style="opacity:1" fill="#fefffe" d="M 24.5,-0.5 C 27.5,-0.5 30.5,-0.5 33.5,-0.5C 33.5,2.5 33.5,5.5 33.5,8.5C 30.5,8.5 27.5,8.5 24.5,8.5C 24.5,5.5 24.5,2.5 24.5,-0.5 Z"/></g>
<g><path style="opacity:0.984" fill="#f1f1f1" d="M 23.5,-0.5 C 23.8333,-0.5 24.1667,-0.5 24.5,-0.5C 24.5,2.5 24.5,5.5 24.5,8.5C 24.5,11.5 24.5,14.5 24.5,17.5C 21.8333,17.5 19.1667,17.5 16.5,17.5C 16.5,20.5 16.5,23.5 16.5,26.5C 13.8333,26.5 11.1667,26.5 8.5,26.5C 8.5,28.8333 8.5,31.1667 8.5,33.5C 11.1667,33.5 13.8333,33.5 16.5,33.5C 16.5,36.1667 16.5,38.8333 16.5,41.5C 19.1873,41.3359 21.854,41.5026 24.5,42C 25.4438,44.7191 25.7771,47.5525 25.5,50.5C 28.1667,50.5 30.8333,50.5 33.5,50.5C 33.5,53.5 33.5,56.5 33.5,59.5C 30.1667,59.5 26.8333,59.5 23.5,59.5C 23.5,56.8333 23.5,54.1667 23.5,51.5C 20.8333,51.5 18.1667,51.5 15.5,51.5C 15.5,48.8333 15.5,46.1667 15.5,43.5C 12.8333,43.5 10.1667,43.5 7.5,43.5C 7.5,40.5 7.5,37.5 7.5,34.5C 4.83333,34.5 2.16667,34.5 -0.5,34.5C -0.5,31.1667 -0.5,27.8333 -0.5,24.5C 2.16667,24.5 4.83333,24.5 7.5,24.5C 7.5,21.8333 7.5,19.1667 7.5,16.5C 10.1667,16.5 12.8333,16.5 15.5,16.5C 15.5,13.8333 15.5,11.1667 15.5,8.5C 18.1667,8.5 20.8333,8.5 23.5,8.5C 23.5,5.5 23.5,2.5 23.5,-0.5 Z"/></g>
<g><path style="opacity:0.027" fill="#adadad" d="M 24.5,8.5 C 27.5,8.5 30.5,8.5 33.5,8.5C 31.0521,9.47307 28.3854,9.8064 25.5,9.5C 25.8064,12.3854 25.4731,15.0521 24.5,17.5C 24.5,14.5 24.5,11.5 24.5,8.5 Z"/></g>
<g><path style="opacity:0.977" fill="#f2f2f2" d="M 50.5,-0.5 C 53.5,-0.5 56.5,-0.5 59.5,-0.5C 59.5,2.83333 59.5,6.16667 59.5,9.5C 56.8333,9.5 54.1667,9.5 51.5,9.5C 51.5,12.1667 51.5,14.8333 51.5,17.5C 48.8333,17.5 46.1667,17.5 43.5,17.5C 43.5,20.5 43.5,23.5 43.5,26.5C 40.8333,26.5 38.1667,26.5 35.5,26.5C 35.5,28.8333 35.5,31.1667 35.5,33.5C 38.1667,33.5 40.8333,33.5 43.5,33.5C 43.5,36.1667 43.5,38.8333 43.5,41.5C 46.1667,41.5 48.8333,41.5 51.5,41.5C 51.5,44.5 51.5,47.5 51.5,50.5C 54.1667,50.5 56.8333,50.5 59.5,50.5C 59.5,53.5 59.5,56.5 59.5,59.5C 56.5,59.5 53.5,59.5 50.5,59.5C 50.5,56.8333 50.5,54.1667 50.5,51.5C 47.8333,51.5 45.1667,51.5 42.5,51.5C 42.5,48.8333 42.5,46.1667 42.5,43.5C 39.8127,43.6641 37.146,43.4974 34.5,43C 33.5562,40.2809 33.2229,37.4475 33.5,34.5C 30.8333,34.5 28.1667,34.5 25.5,34.5C 25.5,31.1667 25.5,27.8333 25.5,24.5C 28.1667,24.5 30.8333,24.5 33.5,24.5C 33.5,21.8333 33.5,19.1667 33.5,16.5C 36.5,16.5 39.5,16.5 42.5,16.5C 42.5,13.8333 42.5,11.1667 42.5,8.5C 45.1667,8.5 47.8333,8.5 50.5,8.5C 50.5,5.5 50.5,2.5 50.5,-0.5 Z"/></g>
</svg>
